<?xml version="1.0" encoding="UTF-8"?>
<svg xmlns="http://www.w3.org/2000/svg" xmlns:xlink="http://www.w3.org/1999/xlink" width="48pt" height="48pt" viewBox="0 0 48 48" version="1.1">
<g id="surface25218358">
<path style="fill-rule:nonzero;fill:rgb(21.960784%,55.686275%,23.529412%);fill-opacity:1;stroke-width:9;stroke-linecap:butt;stroke-linejoin:round;stroke:rgb(80%,80%,80%);stroke-opacity:1;stroke-miterlimit:10;" d="M 61.640704 68.514294 C 61.979232 68.337671 62.332479 68.249359 62.715163 68.249359 C 63.068409 68.249359 63.436375 68.337671 63.774903 68.514294 L 81.34892 78.243294 C 82.011257 78.611259 82.423378 79.288315 82.423378 80.009527 L 82.423378 99.482245 C 82.423378 100.203456 82.011257 100.880512 81.363639 101.248477 L 63.774903 110.977477 C 63.127284 111.345442 62.303042 111.345442 61.655423 110.977477 L 44.066687 101.248477 C 43.40435 100.880512 43.006947 100.203456 43.006947 99.482245 L 43.006947 80.009527 C 43.006947 79.288315 43.40435 78.611259 44.066687 78.243294 L 61.640704 68.514294 M 152.115985 86.044156 C 152.17486 86.014719 152.233734 86 152.292609 86 C 152.351483 86 152.410358 86.014719 152.469232 86.044156 L 155.398235 87.663203 C 155.515984 87.722077 155.574858 87.839826 155.574858 87.957575 L 155.574858 91.210387 C 155.574858 91.328136 155.515984 91.445885 155.398235 91.504759 L 152.469232 93.123806 C 152.366202 93.182681 152.233734 93.182681 152.115985 93.123806 L 149.186982 91.504759 C 149.083952 91.445885 149.010359 91.328136 149.010359 91.210387 L 149.010359 87.957575 C 149.010359 87.839826 149.069234 87.722077 149.186982 87.663203 L 152.115985 86.044156 " transform="matrix(0.265395,0,0,0.265395,1.176,1.176)"/>
<path style="fill-rule:nonzero;fill:rgb(21.568627%,27.843137%,30.980392%);fill-opacity:1;stroke-width:9;stroke-linecap:butt;stroke-linejoin:round;stroke:rgb(80%,80%,80%);stroke-opacity:1;stroke-miterlimit:10;" d="M 128.993053 49.409541 L 128.993053 99.305621 C 128.993053 100.041552 128.59565 100.718608 127.948032 101.071854 L 110.359296 110.815572 C 109.696958 111.168819 108.887435 111.168819 108.239816 110.815572 L 90.65108 101.071854 C 89.988743 100.703889 89.576622 100.041552 89.576622 99.305621 L 89.576622 79.847622 C 89.576622 79.12641 89.988743 78.449354 90.65108 78.081389 L 108.225097 68.352389 C 108.563625 68.175766 108.931591 68.087455 109.284837 68.087455 C 109.652802 68.087455 110.020768 68.175766 110.359296 68.352389 L 118.248469 72.723816 L 118.248469 43.875345 C 118.248469 43.566254 118.425093 43.286601 118.690027 43.124696 C 118.954962 42.962791 119.278772 42.962791 119.543707 43.109977 L 128.109936 47.893525 C 128.654525 48.202616 128.993053 48.776641 128.993053 49.409541 Z M 118.248469 94.006923 L 118.248469 85.161039 C 118.248469 84.822511 118.071846 84.513421 117.762755 84.351516 L 109.770551 79.935934 C 109.623365 79.847622 109.461461 79.803466 109.284837 79.803466 C 109.122933 79.803466 108.961028 79.847622 108.813842 79.935934 L 100.821638 84.351516 C 100.512547 84.513421 100.335924 84.822511 100.335924 85.161039 L 100.335924 94.006923 C 100.335924 94.330732 100.512547 94.639823 100.821638 94.801727 L 108.813842 99.232028 C 109.108214 99.393933 109.476179 99.393933 109.78527 99.232028 L 117.762755 94.801727 C 118.071846 94.639823 118.248469 94.330732 118.248469 94.006923 Z M 118.248469 94.006923 " transform="matrix(0.265395,0,0,0.265395,1.176,1.176)"/>
<path style="fill-rule:nonzero;fill:rgb(18.039216%,49.019608%,19.607843%);fill-opacity:1;stroke-width:9;stroke-linecap:butt;stroke-linejoin:round;stroke:rgb(80%,80%,80%);stroke-opacity:1;stroke-miterlimit:10;" d="M 61.640704 68.514294 C 61.979232 68.337671 62.332479 68.249359 62.715163 68.249359 C 63.068409 68.249359 63.436375 68.337671 63.774903 68.514294 L 81.34892 78.243294 C 82.011257 78.611259 82.423378 79.288315 82.423378 80.009527 L 63.774903 110.977477 C 63.127284 111.345442 62.303042 111.345442 61.655423 110.977477 L 44.066687 101.248477 C 43.40435 100.880512 43.006947 100.203456 43.006947 99.482245 L 61.640704 68.514294 " transform="matrix(0.265395,0,0,0.265395,1.176,1.176)"/>
<path style="fill-rule:nonzero;fill:rgb(29.803922%,68.627451%,31.372549%);fill-opacity:1;stroke-width:9;stroke-linecap:butt;stroke-linejoin:round;stroke:rgb(80%,80%,80%);stroke-opacity:1;stroke-miterlimit:10;" d="M 61.640704 68.514294 C 61.979232 68.337671 62.332479 68.249359 62.715163 68.249359 C 63.068409 68.249359 63.436375 68.337671 63.774903 68.514294 L 82.423378 99.482245 C 82.423378 100.203456 82.011257 100.880512 81.34892 101.248477 L 63.774903 110.977477 C 63.112565 111.345442 62.303042 111.345442 61.640704 110.977477 L 43.006947 80.009527 C 43.006947 79.288315 43.40435 78.611259 44.066687 78.243294 L 61.640704 68.514294 " transform="matrix(0.265395,0,0,0.265395,1.176,1.176)"/>
<path style="fill-rule:nonzero;fill:rgb(21.568627%,27.843137%,30.980392%);fill-opacity:1;stroke-width:9;stroke-linecap:butt;stroke-linejoin:round;stroke:rgb(80%,80%,80%);stroke-opacity:1;stroke-miterlimit:10;" d="M 172.000824 79.891778 L 172.000824 86.6329 C 172.000824 87.251082 171.677015 87.810389 171.147145 88.119479 L 162.551478 93.123806 C 162.271825 93.270992 161.948015 93.270992 161.68308 93.123806 C 161.418145 92.961901 161.241522 92.682248 161.241522 92.373157 L 161.241522 85.161039 C 161.241522 84.83723 161.064899 84.528139 160.785245 84.366235 L 152.778323 79.935934 C 152.616418 79.862341 152.454513 79.818185 152.292609 79.818185 C 152.115985 79.818185 151.954081 79.847622 151.806895 79.935934 L 143.799972 84.366235 C 143.5056 84.528139 143.328977 84.822511 143.328977 85.161039 L 143.328977 93.992204 C 143.328977 94.330732 143.520319 94.639823 143.814691 94.816446 L 161.462301 104.442415 C 162.21295 104.854536 162.21295 105.914276 161.462301 106.326397 L 153.352348 110.815572 C 152.70473 111.183538 151.895206 111.183538 151.232869 110.815572 L 133.644133 101.071854 C 132.996514 100.718608 132.584393 100.026833 132.584393 99.276184 L 132.584393 79.891778 C 132.584393 79.141129 132.996514 78.449354 133.644133 78.081389 L 151.232869 68.352389 C 151.556678 68.175766 151.924643 68.087455 152.292609 68.087455 C 152.660574 68.087455 153.028539 68.175766 153.352348 68.352389 L 170.941084 78.081389 C 171.588703 78.449354 172.000824 79.141129 172.000824 79.891778 Z M 39.415607 79.891778 L 39.415607 106.635488 C 39.415607 106.944579 39.253702 107.224232 38.988767 107.386137 C 38.723832 107.533323 38.385304 107.533323 38.120369 107.386137 L 29.524703 102.396529 C 28.994833 102.087438 28.671023 101.513412 28.671023 100.895231 L 28.671023 85.161039 C 28.671023 84.822511 28.4944 84.528139 28.200028 84.366235 L 20.193105 79.935934 C 20.045919 79.847622 19.884015 79.818185 19.707391 79.818185 C 19.545487 79.818185 19.368863 79.847622 19.221677 79.935934 L 11.214755 84.366235 C 10.935101 84.513421 10.743759 84.822511 10.743759 85.161039 L 10.743759 100.895231 C 10.743759 101.513412 10.41995 102.087438 9.89008 102.396529 L 1.294413 107.386137 C 1.029478 107.533323 0.705669 107.533323 0.440734 107.386137 C 0.16108 107.224232 -0.000824242 106.944579 -0.000824242 106.635488 L -0.000824242 79.891778 C -0.000824242 79.141129 0.411297 78.449354 1.058916 78.081389 L 18.647652 68.352389 C 18.971461 68.175766 19.339426 68.087455 19.707391 68.087455 C 20.075357 68.087455 20.443322 68.175766 20.767131 68.352389 L 38.355867 78.081389 C 39.003486 78.449354 39.415607 79.141129 39.415607 79.891778 Z M 39.415607 79.891778 " transform="matrix(0.265395,0,0,0.265395,1.176,1.176)"/>
<path style=" stroke:none;fill-rule:nonzero;fill:rgb(21.960784%,55.686275%,23.529412%);fill-opacity:1;" d="M 17.535156 19.359375 L 12.871094 21.941406 C 12.695312 22.039062 12.589844 22.21875 12.589844 22.410156 L 12.589844 27.578125 C 12.589844 27.769531 12.695312 27.949219 12.871094 28.046875 L 17.539062 30.628906 C 17.710938 30.726562 17.929688 30.726562 18.101562 30.628906 L 22.769531 28.046875 C 22.941406 27.949219 23.050781 27.769531 23.050781 27.578125 L 23.050781 22.410156 C 23.050781 22.21875 22.941406 22.039062 22.765625 21.941406 L 18.101562 19.359375 C 18.011719 19.3125 17.914062 19.289062 17.820312 19.289062 C 17.71875 19.289062 17.625 19.3125 17.535156 19.359375 M 41.546875 24.011719 L 40.769531 24.441406 C 40.738281 24.457031 40.722656 24.488281 40.722656 24.519531 L 40.722656 25.382812 C 40.722656 25.414062 40.742188 25.445312 40.769531 25.460938 L 41.546875 25.890625 C 41.578125 25.90625 41.613281 25.90625 41.640625 25.890625 L 42.417969 25.460938 C 42.449219 25.445312 42.464844 25.414062 42.464844 25.382812 L 42.464844 24.519531 C 42.464844 24.488281 42.449219 24.457031 42.417969 24.441406 L 41.640625 24.011719 C 41.625 24.003906 41.609375 24 41.59375 24 C 41.578125 24 41.5625 24.003906 41.546875 24.011719 "/>
<path style=" stroke:none;fill-rule:nonzero;fill:rgb(21.568627%,27.843137%,30.980392%);fill-opacity:1;" d="M 35.175781 13.886719 L 32.902344 12.617188 C 32.832031 12.578125 32.746094 12.578125 32.675781 12.621094 C 32.605469 12.664062 32.558594 12.738281 32.558594 12.820312 L 32.558594 20.476562 L 30.464844 19.316406 C 30.375 19.269531 30.277344 19.246094 30.179688 19.246094 C 30.085938 19.246094 29.988281 19.269531 29.898438 19.316406 L 25.234375 21.898438 C 25.058594 21.996094 24.949219 22.175781 24.949219 22.367188 L 24.949219 27.53125 C 24.949219 27.726562 25.058594 27.902344 25.234375 28 L 29.902344 30.585938 C 30.074219 30.679688 30.289062 30.679688 30.464844 30.585938 L 35.132812 28 C 35.304688 27.90625 35.410156 27.726562 35.410156 27.53125 L 35.410156 14.289062 C 35.410156 14.121094 35.320312 13.96875 35.175781 13.886719 Z M 32.429688 26.335938 L 30.3125 27.511719 C 30.230469 27.554688 30.132812 27.554688 30.054688 27.511719 L 27.933594 26.335938 C 27.851562 26.292969 27.804688 26.210938 27.804688 26.125 L 27.804688 23.777344 C 27.804688 23.6875 27.851562 23.605469 27.933594 23.5625 L 30.054688 22.390625 C 30.09375 22.367188 30.136719 22.355469 30.179688 22.355469 C 30.226562 22.355469 30.269531 22.367188 30.308594 22.390625 L 32.429688 23.5625 C 32.511719 23.605469 32.558594 23.6875 32.558594 23.777344 L 32.558594 26.125 C 32.558594 26.210938 32.511719 26.292969 32.429688 26.335938 Z M 32.429688 26.335938 "/>
<path style=" stroke:none;fill-rule:nonzero;fill:rgb(18.039216%,49.019608%,19.607843%);fill-opacity:1;" d="M 17.535156 19.359375 L 12.589844 27.578125 C 12.589844 27.769531 12.695312 27.949219 12.871094 28.046875 L 17.539062 30.628906 C 17.710938 30.726562 17.929688 30.726562 18.101562 30.628906 L 23.050781 22.410156 C 23.050781 22.21875 22.941406 22.039062 22.765625 21.941406 L 18.101562 19.359375 C 18.011719 19.3125 17.914062 19.289062 17.820312 19.289062 C 17.71875 19.289062 17.625 19.3125 17.535156 19.359375 "/>
<path style=" stroke:none;fill-rule:nonzero;fill:rgb(29.803922%,68.627451%,31.372549%);fill-opacity:1;" d="M 17.535156 19.359375 L 12.871094 21.941406 C 12.695312 22.039062 12.589844 22.21875 12.589844 22.410156 L 17.535156 30.628906 C 17.710938 30.726562 17.925781 30.726562 18.101562 30.628906 L 22.765625 28.046875 C 22.941406 27.949219 23.050781 27.769531 23.050781 27.578125 L 18.101562 19.359375 C 18.011719 19.3125 17.914062 19.289062 17.820312 19.289062 C 17.71875 19.289062 17.625 19.3125 17.535156 19.359375 "/>
<path style=" stroke:none;fill-rule:nonzero;fill:rgb(21.568627%,27.843137%,30.980392%);fill-opacity:1;" d="M 46.542969 21.898438 L 41.875 19.316406 C 41.789062 19.269531 41.691406 19.246094 41.59375 19.246094 C 41.496094 19.246094 41.398438 19.269531 41.3125 19.316406 L 36.644531 21.898438 C 36.472656 21.996094 36.363281 22.179688 36.363281 22.378906 L 36.363281 27.523438 C 36.363281 27.722656 36.472656 27.90625 36.644531 28 L 41.3125 30.585938 C 41.488281 30.683594 41.703125 30.683594 41.875 30.585938 L 44.027344 29.394531 C 44.226562 29.285156 44.226562 29.003906 44.027344 28.894531 L 39.34375 26.339844 C 39.265625 26.292969 39.214844 26.210938 39.214844 26.121094 L 39.214844 23.777344 C 39.214844 23.6875 39.261719 23.609375 39.339844 23.566406 L 41.464844 22.390625 C 41.503906 22.367188 41.546875 22.359375 41.59375 22.359375 C 41.636719 22.359375 41.679688 22.371094 41.722656 22.390625 L 43.847656 23.566406 C 43.921875 23.609375 43.96875 23.691406 43.96875 23.777344 L 43.96875 25.691406 C 43.96875 25.773438 44.015625 25.847656 44.085938 25.890625 C 44.15625 25.929688 44.242188 25.929688 44.316406 25.890625 L 46.597656 24.5625 C 46.738281 24.480469 46.824219 24.332031 46.824219 24.167969 L 46.824219 22.378906 C 46.824219 22.179688 46.714844 21.996094 46.542969 21.898438 Z M 11.355469 21.898438 L 6.6875 19.316406 C 6.601562 19.269531 6.503906 19.246094 6.40625 19.246094 C 6.308594 19.246094 6.210938 19.269531 6.125 19.316406 L 1.457031 21.898438 C 1.285156 21.996094 1.175781 22.179688 1.175781 22.378906 L 1.175781 29.476562 C 1.175781 29.558594 1.21875 29.632812 1.292969 29.675781 C 1.363281 29.714844 1.449219 29.714844 1.519531 29.675781 L 3.800781 28.351562 C 3.941406 28.269531 4.027344 28.117188 4.027344 27.953125 L 4.027344 23.777344 C 4.027344 23.6875 4.078125 23.605469 4.152344 23.566406 L 6.277344 22.390625 C 6.316406 22.367188 6.363281 22.359375 6.40625 22.359375 C 6.453125 22.359375 6.496094 22.367188 6.535156 22.390625 L 8.660156 23.566406 C 8.738281 23.609375 8.785156 23.6875 8.785156 23.777344 L 8.785156 27.953125 C 8.785156 28.117188 8.871094 28.269531 9.011719 28.351562 L 11.292969 29.675781 C 11.363281 29.714844 11.453125 29.714844 11.523438 29.675781 C 11.59375 29.632812 11.636719 29.558594 11.636719 29.476562 L 11.636719 22.378906 C 11.636719 22.179688 11.527344 21.996094 11.355469 21.898438 Z M 11.355469 21.898438 "/>
</g>
</svg>
