<?xml version="1.0" encoding="UTF-8"?>
<svg xmlns="http://www.w3.org/2000/svg" xmlns:xlink="http://www.w3.org/1999/xlink" width="16pt" height="16pt" viewBox="0 0 16 16" version="1.1">
<g id="surface25217977">
<path style="fill-rule:nonzero;fill:rgb(54.509804%,71.764706%,94.117647%);fill-opacity:1;stroke-width:10;stroke-linecap:butt;stroke-linejoin:round;stroke:rgb(90.588235%,11.764706%,83.137255%);stroke-opacity:1;stroke-miterlimit:10;" d="M 99.95296 86 C 99.95296 93.731895 93.731895 99.95296 86 99.95296 C 78.268105 99.95296 72.04704 93.731895 72.04704 86 C 72.04704 78.268105 78.268105 72.04704 86 72.04704 C 93.731895 72.04704 99.95296 78.268105 99.95296 86 Z M 99.95296 86 " transform="matrix(0.087907,0,0,0.087907,0.44,0.44)"/>
<path style="fill-rule:nonzero;fill:rgb(30.588235%,47.843137%,70.980392%);fill-opacity:1;stroke-width:10;stroke-linecap:butt;stroke-linejoin:round;stroke:rgb(90.588235%,11.764706%,83.137255%);stroke-opacity:1;stroke-miterlimit:10;" d="M 86 101.063864 C 77.690435 101.063864 70.936136 94.309565 70.936136 86 C 70.936136 77.690435 77.690435 70.936136 86 70.936136 C 94.309565 70.936136 101.063864 77.690435 101.063864 86 C 101.063864 94.309565 94.309565 101.063864 86 101.063864 Z M 86 73.113509 C 78.890212 73.113509 73.113509 78.890212 73.113509 86 C 73.113509 93.109788 78.890212 98.886491 86 98.886491 C 93.109788 98.886491 98.886491 93.109788 98.886491 86 C 98.886491 78.890212 93.109788 73.113509 86 73.113509 Z M 86 73.113509 " transform="matrix(0.087907,0,0,0.087907,0.44,0.44)"/>
<path style="fill-rule:nonzero;fill:rgb(54.509804%,71.764706%,94.117647%);fill-opacity:1;stroke-width:10;stroke-linecap:butt;stroke-linejoin:round;stroke:rgb(90.588235%,11.764706%,83.137255%);stroke-opacity:1;stroke-miterlimit:10;" d="M 52.628431 162.341353 C 48.940228 162.341353 45.607515 161.497065 42.674727 159.80849 C 37.742312 157.053447 34.365162 152.25434 32.587715 145.588914 C 30.499215 137.857019 30.765832 127.547826 33.298694 115.772239 C 12.813616 108.706887 1.082465 97.908896 1.082465 86 C 1.082465 74.091104 12.813616 63.293113 33.298694 56.227761 C 30.765832 44.452174 30.499215 34.142981 32.587715 26.411086 C 34.365162 19.74566 37.742312 14.946553 42.674727 12.19151 C 45.563079 10.502935 48.940228 9.658647 52.628431 9.658647 C 62.0489 9.658647 73.868924 15.524223 86 26.233342 C 98.131076 15.568659 109.9511 9.703084 119.371569 9.703084 C 123.059772 9.703084 126.392485 10.547371 129.325273 12.19151 C 134.213252 14.946553 137.634838 19.74566 139.412285 26.411086 C 141.500785 34.142981 141.234168 44.452174 138.701306 56.227761 C 159.186384 63.293113 170.917535 74.091104 170.917535 86 C 170.917535 97.908896 159.186384 108.706887 138.701306 115.772239 C 141.234168 127.547826 141.500785 137.857019 139.412285 145.588914 C 137.634838 152.25434 134.257688 157.053447 129.325273 159.80849 C 126.392485 161.452629 123.059772 162.296916 119.371569 162.296916 C 109.9511 162.296916 98.131076 156.431341 86 145.766658 C 73.868924 156.475777 62.0489 162.341353 52.628431 162.341353 Z M 41.563823 118.260665 C 39.430886 128.392113 39.208705 137.057168 40.89728 143.367105 C 42.052621 147.72185 44.096685 150.74351 46.896164 152.343213 C 48.540303 153.276372 50.451058 153.720734 52.628431 153.720734 C 59.915964 153.720734 69.514178 148.832755 79.734499 139.901083 C 74.624339 134.746486 69.603051 128.880911 64.84838 122.482102 C 56.627687 121.593378 48.80692 120.17142 41.563823 118.260665 Z M 92.265501 139.901083 C 102.485822 148.832755 112.084036 153.720734 119.371569 153.720734 C 121.548942 153.720734 123.459697 153.231936 125.103836 152.343213 C 127.903315 150.74351 129.947379 147.72185 131.10272 143.367105 C 132.791295 137.057168 132.569114 128.392113 130.436177 118.260665 C 123.19308 120.17142 115.372313 121.593378 107.107184 122.482102 C 102.352513 128.880911 97.375661 134.746486 92.265501 139.901083 Z M 76.446222 123.415261 C 79.60119 127.192336 82.800595 130.791667 86 134.035508 C 89.199405 130.791667 92.39881 127.236772 95.509342 123.415261 C 92.309937 123.54857 89.110532 123.637442 86 123.637442 C 82.889468 123.637442 79.690063 123.54857 76.446222 123.415261 Z M 69.558614 114.350281 C 74.935392 114.794643 80.445478 115.016824 86 115.016824 C 91.554522 115.016824 97.064608 114.794643 102.441386 114.350281 C 105.64079 109.862227 108.66245 105.151992 111.506366 100.352885 C 114.216973 95.731523 116.794271 90.887979 119.104952 86 C 116.794271 81.112021 114.216973 76.268477 111.506366 71.647115 C 108.706887 66.848008 105.64079 62.137773 102.441386 57.649719 C 97.109044 57.205357 91.554522 56.983176 86 56.983176 C 80.445478 56.983176 74.890956 57.205357 69.558614 57.649719 C 66.35921 62.137773 63.293113 66.848008 60.493634 71.647115 C 57.738591 76.268477 55.205729 81.112021 52.850612 86 C 55.205729 90.887979 57.738591 95.731523 60.493634 100.352885 C 63.293113 105.151992 66.314773 109.817791 69.558614 114.350281 Z M 123.593006 96.264757 C 122.082176 99.153108 120.52691 101.997024 118.927207 104.752067 C 117.283069 107.50711 115.550058 110.262153 113.772611 112.97276 C 118.882771 112.172908 123.770751 111.195312 128.347677 109.9511 C 127.059028 105.551918 125.459325 100.974992 123.593006 96.264757 Z M 43.652323 109.9511 C 48.229249 111.195312 53.117229 112.172908 58.182953 112.97276 C 56.405506 110.217717 54.672495 107.462674 53.072793 104.752067 C 51.47309 101.997024 49.917824 99.153108 48.362558 96.264757 C 46.496238 100.974992 44.940972 105.551918 43.652323 109.9511 Z M 128.614294 86 C 131.902571 93.287533 134.568742 100.486194 136.56837 107.462674 C 152.476521 101.863715 162.341353 93.687459 162.341353 86 C 162.341353 78.312541 152.476521 70.136285 136.56837 64.537326 C 134.568742 71.513806 131.902571 78.712467 128.614294 86 Z M 35.43163 64.537326 C 19.523479 70.136285 9.658647 78.312541 9.658647 86 C 9.658647 93.687459 19.523479 101.863715 35.43163 107.462674 C 37.431258 100.486194 40.097429 93.287533 43.385706 86 C 40.097429 78.712467 37.431258 71.513806 35.43163 64.537326 Z M 43.652323 62.0489 C 44.940972 66.448082 46.496238 71.025008 48.362558 75.735243 C 49.873388 72.846892 51.47309 70.002976 53.072793 67.247933 C 54.672495 64.537326 56.405506 61.737847 58.227389 59.02724 C 53.117229 59.827092 48.229249 60.804688 43.652323 62.0489 Z M 113.772611 59.02724 C 115.594494 61.782283 117.283069 64.537326 118.927207 67.247933 C 120.52691 70.002976 122.082176 72.846892 123.593006 75.735243 C 125.459325 71.025008 127.059028 66.448082 128.347677 62.0489 C 123.770751 60.804688 118.882771 59.782655 113.772611 59.02724 Z M 52.628431 18.279266 C 50.451058 18.279266 48.495866 18.723628 46.896164 19.656787 C 44.096685 21.25649 42.052621 24.27815 40.89728 28.632895 C 39.208705 34.942832 39.430886 43.607887 41.563823 53.739335 C 48.80692 51.82858 56.627687 50.406622 64.84838 49.517898 C 69.647487 43.119089 74.624339 37.253514 79.778935 32.098917 C 69.514178 23.167245 59.915964 18.279266 52.628431 18.279266 Z M 107.15162 49.517898 C 115.372313 50.406622 123.19308 51.82858 130.436177 53.739335 C 132.569114 43.607887 132.791295 34.942832 131.10272 28.632895 C 129.947379 24.27815 127.903315 21.25649 125.103836 19.656787 C 123.459697 18.768064 121.548942 18.279266 119.371569 18.279266 C 112.084036 18.279266 102.485822 23.167245 92.265501 32.098917 C 97.375661 37.253514 102.352513 43.119089 107.15162 49.517898 Z M 86 48.362558 C 89.110532 48.362558 92.309937 48.45143 95.509342 48.584739 C 92.39881 44.807664 89.199405 41.208333 86 38.008929 C 82.800595 41.25277 79.60119 44.807664 76.490658 48.584739 C 79.690063 48.45143 82.889468 48.362558 86 48.362558 Z M 86 48.362558 " transform="matrix(0.087907,0,0,0.087907,0.44,0.44)"/>
<path style="fill-rule:nonzero;fill:rgb(30.588235%,47.843137%,70.980392%);fill-opacity:1;stroke-width:10;stroke-linecap:butt;stroke-linejoin:round;stroke:rgb(90.588235%,11.764706%,83.137255%);stroke-opacity:1;stroke-miterlimit:10;" d="M 52.628431 10.725116 C 49.117973 10.725116 45.963004 11.524967 43.163525 13.124669 C 38.542163 15.746404 35.342758 20.32333 33.609747 26.677703 C 32.676587 30.188161 32.054481 34.320726 32.098917 38.719907 C 32.143353 44.27443 33.076513 50.362186 34.542907 56.93874 C 14.724372 63.55973 2.148934 74.046668 2.148934 86 C 2.148934 97.953332 14.724372 108.44027 34.542907 115.06126 C 31.565683 126.836847 31.076885 137.323785 33.609747 145.322297 C 35.342758 151.67667 38.542163 156.253596 43.207961 158.875331 C 45.963004 160.475033 49.117973 161.274884 52.628431 161.274884 C 62.271081 161.274884 74.091104 155.009383 86 144.344701 C 97.908896 155.009383 109.506738 161.230448 119.149388 161.230448 C 119.149388 161.230448 120.038112 161.230448 120.038112 161.230448 C 123.54857 161.230448 126.036996 160.430597 128.836475 158.875331 C 133.457837 156.253596 136.657242 151.67667 138.390253 145.322297 C 140.789807 138.123636 140.301009 127.458953 137.457093 115.06126 C 157.275628 108.44027 169.851066 97.953332 169.851066 86 C 169.851066 74.046668 157.275628 63.55973 137.457093 56.93874 C 140.212136 45.474206 140.700934 35.120577 138.390253 26.677703 C 136.657242 20.32333 133.457837 15.746404 128.792039 13.124669 C 126.036996 11.569403 122.882027 10.769552 119.371569 10.769552 C 109.728919 10.769552 97.908896 16.990617 86 27.655299 C 74.091104 16.990617 62.271081 10.725116 52.628431 10.725116 M 40.763972 55.072421 C 38.408854 44.541047 38.008929 35.253886 39.830812 28.366278 C 41.119461 23.700479 43.296834 20.456639 46.36293 18.723628 C 48.140377 17.701596 50.228877 17.212798 52.628431 17.212798 C 60.671379 17.212798 70.847264 22.722884 81.334201 32.054481 C 75.912988 37.431258 70.580646 43.607887 65.42605 50.539931 C 56.538814 51.47309 48.229249 53.028356 40.763972 55.072421 M 131.236028 55.072421 C 123.770751 53.028356 115.461186 51.47309 106.529514 50.495494 C 101.419354 43.607887 96.087012 37.431258 90.665799 32.054481 C 101.152736 22.722884 111.328621 17.212798 119.371569 17.212798 C 121.726687 17.212798 123.859623 17.701596 125.63707 18.723628 C 128.703166 20.456639 130.880539 23.700479 132.124752 28.366278 C 133.991071 35.209449 133.54671 44.541047 131.236028 55.072421 M 74.135541 49.828952 C 78.001488 44.896536 82.000744 40.452918 86 36.453662 C 89.999256 40.452918 93.998512 44.896536 97.864459 49.828952 C 93.998512 49.562335 89.95482 49.38459 85.911128 49.38459 C 81.867436 49.38459 78.001488 49.562335 74.135541 49.828952 M 86 116.083292 C 80.045552 116.083292 74.357722 115.861111 68.980944 115.372313 C 65.692667 110.795387 62.537698 105.99628 59.560475 100.930556 C 56.672123 95.99814 54.005952 90.976852 51.695271 86 C 54.005952 81.023148 56.672123 76.046296 59.560475 71.069444 C 62.537698 66.00372 65.692667 61.204613 68.980944 56.627687 C 74.357722 56.138889 80.045552 55.916708 86 55.916708 C 91.954448 55.916708 97.642278 56.138889 103.019056 56.627687 C 106.307333 61.204613 109.462302 66.00372 112.439525 71.069444 C 115.327877 76.046296 117.949611 81.023148 120.304729 86 C 117.949611 90.976852 115.327877 95.99814 112.439525 100.930556 C 109.462302 105.99628 106.307333 110.795387 103.019056 115.372313 C 97.597842 115.861111 91.954448 116.083292 86 116.083292 M 123.726314 78.268105 C 121.948867 74.802083 120.038112 71.291625 117.994048 67.825604 C 115.905547 64.270709 113.772611 60.89356 111.550802 57.605283 C 118.127356 58.538442 124.170676 59.782655 129.680762 61.293485 C 128.125496 66.759135 126.125868 72.446966 123.726314 78.268105 M 48.273686 78.268105 C 45.829696 72.446966 43.830068 66.759135 42.319238 61.293485 C 47.829324 59.782655 53.872644 58.538442 60.449198 57.605283 C 58.227389 60.89356 56.094453 64.270709 54.005952 67.825604 C 51.961888 71.291625 50.051133 74.802083 48.273686 78.268105 M 135.857391 108.840195 C 133.813327 101.508226 130.969411 93.820767 127.414517 86 C 130.969411 78.179233 133.813327 70.491774 135.857391 63.159805 C 153.231936 69.02538 163.407821 77.690435 163.407821 86 C 163.407821 94.309565 153.231936 102.97462 135.857391 108.840195 M 36.142609 108.840195 C 18.768064 102.97462 8.592179 94.309565 8.592179 86 C 8.592179 77.690435 18.768064 69.069816 36.142609 63.159805 C 38.186673 70.491774 41.030589 78.179233 44.585483 86 C 41.030589 93.820767 38.186673 101.508226 36.142609 108.840195 M 111.550802 114.394717 C 113.772611 111.10644 115.905547 107.729291 117.994048 104.174396 C 120.038112 100.708375 121.948867 97.197917 123.726314 93.731895 C 126.125868 99.553034 128.125496 105.240865 129.680762 110.706515 C 124.170676 112.217345 118.127356 113.461558 111.550802 114.394717 M 60.449198 114.394717 C 53.872644 113.461558 47.829324 112.217345 42.319238 110.706515 C 43.830068 105.240865 45.829696 99.553034 48.273686 93.731895 C 50.051133 97.197917 51.961888 100.708375 54.005952 104.174396 C 56.050017 107.729291 58.227389 111.10644 60.449198 114.394717 M 52.628431 154.787202 C 50.273313 154.787202 48.140377 154.298404 46.36293 153.276372 C 43.296834 151.543361 41.119461 148.299521 39.875248 143.633722 C 38.008929 136.746114 38.45329 127.458953 40.763972 116.927579 C 48.229249 118.971644 56.538814 120.52691 65.42605 121.460069 C 70.580646 128.392113 75.912988 134.568742 81.334201 139.945519 C 70.847264 149.277116 60.671379 154.787202 52.628431 154.787202 M 119.371569 154.787202 C 111.328621 154.787202 101.152736 149.277116 90.665799 139.945519 C 96.087012 134.568742 101.419354 128.392113 106.529514 121.460069 C 115.461186 120.52691 123.770751 118.971644 131.236028 116.927579 C 133.54671 127.458953 133.991071 136.746114 132.124752 143.633722 C 130.880539 148.299521 128.703166 151.543361 125.63707 153.276372 C 123.859623 154.298404 121.726687 154.787202 119.371569 154.787202 M 86 135.546338 C 82.000744 131.591518 78.001488 127.103464 74.135541 122.171048 C 78.001488 122.437665 82.134053 122.926463 86.177745 122.926463 C 90.221437 122.926463 93.998512 122.437665 97.864459 122.171048 C 93.998512 127.103464 89.999256 131.591518 86 135.546338 M 52.583995 8.769924 C 62.226645 8.769924 73.780051 14.191138 86 24.811384 C 98.219949 14.191138 109.728919 8.592179 119.371569 8.592179 C 123.237517 8.592179 126.792411 9.480903 129.858507 11.25835 C 135.013104 14.191138 138.567998 19.167989 140.434317 26.100033 C 142.522817 33.831928 142.345073 43.963376 139.945519 55.516782 C 160.341725 62.759879 171.984003 73.780051 171.984003 86 C 171.984003 98.219949 160.341725 109.240121 139.945519 116.483218 C 142.345073 128.036624 142.522817 138.168072 140.434317 145.899967 C 138.567998 152.832011 135.013104 157.808862 129.858507 160.74165 C 126.792411 162.519097 123.237517 163.407821 119.371569 163.407821 C 109.728919 163.407821 98.219949 157.808862 86 147.233052 C 73.780051 157.808862 62.448826 163.274512 52.806176 163.274512 C 48.940228 163.274512 45.207589 162.519097 42.141493 160.786086 C 36.986896 157.853299 33.387566 152.832011 31.565683 145.855531 C 29.477183 138.168072 29.654927 128.036624 32.054481 116.483218 C 11.658275 109.240121 0.015997 98.219949 0.015997 86 C 0.015997 73.780051 11.658275 62.759879 32.054481 55.516782 C 29.654927 43.963376 29.477183 33.831928 31.565683 26.144469 C 33.387566 19.167989 36.986896 14.146701 42.141493 11.213914 C 45.207589 9.480903 47.962632 8.769924 51.82858 8.769924 Z M 42.40811 52.40625 C 49.206845 50.673239 56.583251 49.340154 64.270709 48.495866 C 68.758763 42.541419 73.424562 37.075769 78.179233 32.187789 C 68.492146 23.878224 59.471602 19.212426 52.628431 19.212426 C 50.673239 19.212426 48.895792 19.74566 47.429398 20.589947 C 44.8521 22.056341 43.030217 24.85582 41.919312 28.899512 C 41.163897 31.698991 40.675099 34.942832 40.719535 38.631035 C 40.719535 42.719163 41.386078 47.429398 42.40811 52.40625 Z M 93.820767 32.187789 C 98.575438 37.075769 103.241237 42.541419 107.729291 48.495866 C 115.416749 49.340154 122.748719 50.673239 129.59189 52.40625 C 131.68039 43.030217 131.947007 34.942832 130.080688 28.899512 C 128.969783 24.85582 127.1479 22.056341 124.570602 20.589947 C 123.104208 19.790096 121.371197 19.345734 119.371569 19.345734 C 112.528398 19.345734 103.507854 23.878224 93.820767 32.187789 Z M 78.845775 47.429398 C 81.245329 47.340526 83.644883 47.29609 86 47.29609 C 88.355117 47.29609 90.754671 47.340526 93.154225 47.429398 C 90.799107 44.629919 88.399554 42.008185 86 39.519759 C 83.600446 42.008185 81.200893 44.629919 78.845775 47.429398 Z M 70.136285 58.716187 C 67.070188 63.026496 64.137401 67.558986 61.426794 72.180349 C 58.80506 76.623967 56.316634 81.289765 54.050389 86 C 56.316634 90.710235 58.80506 95.376033 61.426794 99.819651 C 64.137401 104.441014 67.070188 108.973504 70.136285 113.283813 C 75.290881 113.728175 80.623223 114.305845 86 114.305845 C 91.376777 114.305845 96.664683 113.728175 101.863715 113.283813 C 104.929812 108.973504 107.862599 104.441014 110.573206 99.819651 C 113.19494 95.376033 115.683366 90.710235 117.949611 86 C 115.683366 81.289765 113.19494 76.623967 110.573206 72.180349 C 107.862599 67.558986 104.929812 63.026496 101.863715 58.716187 C 96.664683 58.271825 91.376777 57.960772 86 57.960772 C 80.623223 57.960772 75.335317 58.271825 70.136285 58.716187 Z M 123.459697 73.157945 C 124.792783 69.603051 125.99256 66.137029 127.014592 62.804315 C 123.504134 61.915592 119.815931 61.115741 115.99442 60.449198 C 117.327505 62.537698 118.616154 64.626199 119.860367 66.714699 C 121.060144 68.803199 122.259921 70.980572 123.459697 73.157945 Z M 44.985408 62.804315 C 46.00744 66.181465 47.162781 69.647487 48.540303 73.157945 C 49.695643 70.980572 50.939856 68.803199 52.139633 66.714699 C 53.383846 64.626199 54.672495 62.537698 56.00558 60.449198 C 52.184069 61.115741 48.495866 61.915592 44.985408 62.804315 Z M 129.769635 86 C 132.835731 92.798735 135.324157 99.508598 137.279349 106.040716 C 152.121032 100.619502 161.230448 93.065352 161.230448 86 C 161.230448 78.934648 152.121032 71.380498 137.279349 65.959284 C 135.368593 72.491402 132.835731 79.201265 129.769635 86 Z M 34.720651 106.040716 C 36.631407 99.508598 39.164269 92.798735 42.185929 86 C 39.164269 79.201265 36.631407 72.491402 34.720651 65.959284 C 19.878968 71.380498 10.769552 78.934648 10.769552 86 C 10.769552 93.065352 19.878968 100.619502 34.720651 106.040716 Z M 115.99442 111.550802 C 119.815931 110.884259 123.504134 110.084408 127.014592 109.195685 C 125.99256 105.862971 124.792783 102.396949 123.459697 98.842055 C 122.259921 101.019428 121.060144 103.196801 119.815931 105.285301 C 118.616154 107.373801 117.327505 109.462302 115.99442 111.550802 Z M 44.985408 109.195685 C 48.495866 110.084408 52.184069 110.884259 56.00558 111.550802 C 54.672495 109.462302 53.383846 107.373801 52.139633 105.285301 C 50.939856 103.196801 49.695643 101.019428 48.540303 98.842055 C 47.162781 102.396949 46.00744 105.862971 44.985408 109.195685 Z M 52.628431 152.654266 C 59.471602 152.654266 68.492146 148.121776 78.179233 139.812211 C 73.424562 134.924231 68.758763 129.458581 64.270709 123.504134 C 56.583251 122.659846 49.251281 121.326761 42.40811 119.59375 C 40.364046 128.925347 40.141865 136.968295 41.919312 143.100488 C 43.030217 147.14418 44.8521 149.943659 47.429398 151.410053 C 48.895792 152.25434 50.628803 152.654266 52.628431 152.654266 Z M 107.729291 123.504134 C 103.241237 129.458581 98.575438 134.924231 93.820767 139.812211 C 103.507854 148.121776 112.528398 152.654266 119.371569 152.654266 L 119.371569 154.787202 L 119.371569 152.654266 C 121.371197 152.654266 123.104208 152.209904 124.570602 151.410053 C 127.1479 149.943659 128.969783 147.14418 130.080688 143.100488 C 132.169188 137.901455 131.947007 129.769635 129.59189 119.59375 C 122.748719 121.326761 115.416749 122.659846 107.729291 123.504134 Z M 86 132.480241 C 88.399554 130.036252 90.799107 127.370081 93.154225 124.570602 C 90.754671 124.659474 88.355117 124.70391 86 124.70391 C 83.644883 124.70391 81.245329 124.659474 78.845775 124.570602 C 81.200893 127.370081 83.600446 130.036252 86 132.480241 Z M 86 132.480241 " transform="matrix(0.087907,0,0,0.087907,0.44,0.44)"/>
<path style=" stroke:none;fill-rule:nonzero;fill:rgb(54.509804%,71.764706%,94.117647%);fill-opacity:1;" d="M 9.226562 8 C 9.226562 8.679688 8.679688 9.226562 8 9.226562 C 7.320312 9.226562 6.773438 8.679688 6.773438 8 C 6.773438 7.320312 7.320312 6.773438 8 6.773438 C 8.679688 6.773438 9.226562 7.320312 9.226562 8 Z M 9.226562 8 "/>
<path style=" stroke:none;fill-rule:nonzero;fill:rgb(30.588235%,47.843137%,70.980392%);fill-opacity:1;" d="M 8 9.324219 C 7.269531 9.324219 6.675781 8.730469 6.675781 8 C 6.675781 7.269531 7.269531 6.675781 8 6.675781 C 8.730469 6.675781 9.324219 7.269531 9.324219 8 C 9.324219 8.730469 8.730469 9.324219 8 9.324219 Z M 8 6.867188 C 7.375 6.867188 6.867188 7.375 6.867188 8 C 6.867188 8.625 7.375 9.132812 8 9.132812 C 8.625 9.132812 9.132812 8.625 9.132812 8 C 9.132812 7.375 8.625 6.867188 8 6.867188 Z M 8 6.867188 "/>
<path style=" stroke:none;fill-rule:nonzero;fill:rgb(54.509804%,71.764706%,94.117647%);fill-opacity:1;" d="M 5.066406 14.710938 C 4.742188 14.710938 4.449219 14.636719 4.191406 14.488281 C 3.757812 14.246094 3.460938 13.824219 3.304688 13.238281 C 3.121094 12.558594 3.144531 11.652344 3.367188 10.617188 C 1.566406 9.996094 0.535156 9.046875 0.535156 8 C 0.535156 6.953125 1.566406 6.003906 3.367188 5.382812 C 3.144531 4.347656 3.121094 3.441406 3.304688 2.761719 C 3.460938 2.175781 3.757812 1.753906 4.191406 1.511719 C 4.445312 1.363281 4.742188 1.289062 5.066406 1.289062 C 5.894531 1.289062 6.933594 1.804688 8 2.746094 C 9.066406 1.808594 10.105469 1.292969 10.933594 1.292969 C 11.257812 1.292969 11.550781 1.367188 11.808594 1.511719 C 12.238281 1.753906 12.539062 2.175781 12.695312 2.761719 C 12.878906 3.441406 12.855469 4.347656 12.632812 5.382812 C 14.433594 6.003906 15.464844 6.953125 15.464844 8 C 15.464844 9.046875 14.433594 9.996094 12.632812 10.617188 C 12.855469 11.652344 12.878906 12.558594 12.695312 13.238281 C 12.539062 13.824219 12.242188 14.246094 11.808594 14.488281 C 11.550781 14.632812 11.257812 14.707031 10.933594 14.707031 C 10.105469 14.707031 9.066406 14.191406 8 13.253906 C 6.933594 14.195312 5.894531 14.710938 5.066406 14.710938 Z M 4.09375 10.835938 C 3.90625 11.726562 3.886719 12.488281 4.035156 13.042969 C 4.136719 13.425781 4.316406 13.691406 4.5625 13.832031 C 4.707031 13.914062 4.875 13.953125 5.066406 13.953125 C 5.707031 13.953125 6.550781 13.523438 7.449219 12.738281 C 7 12.285156 6.558594 11.769531 6.140625 11.207031 C 5.417969 11.128906 4.730469 11.003906 4.09375 10.835938 Z M 8.550781 12.738281 C 9.449219 13.523438 10.292969 13.953125 10.933594 13.953125 C 11.125 13.953125 11.292969 13.910156 11.4375 13.832031 C 11.683594 13.691406 11.863281 13.425781 11.964844 13.042969 C 12.113281 12.488281 12.09375 11.726562 11.90625 10.835938 C 11.269531 11.003906 10.582031 11.128906 9.855469 11.207031 C 9.4375 11.769531 9 12.285156 8.550781 12.738281 Z M 7.160156 11.289062 C 7.4375 11.621094 7.71875 11.9375 8 12.222656 C 8.28125 11.9375 8.5625 11.625 8.835938 11.289062 C 8.554688 11.300781 8.273438 11.308594 8 11.308594 C 7.726562 11.308594 7.445312 11.300781 7.160156 11.289062 Z M 6.554688 10.492188 C 7.027344 10.53125 7.511719 10.550781 8 10.550781 C 8.488281 10.550781 8.972656 10.53125 9.445312 10.492188 C 9.726562 10.097656 9.992188 9.683594 10.242188 9.261719 C 10.480469 8.855469 10.707031 8.429688 10.910156 8 C 10.707031 7.570312 10.480469 7.144531 10.242188 6.738281 C 9.996094 6.316406 9.726562 5.902344 9.445312 5.507812 C 8.976562 5.46875 8.488281 5.449219 8 5.449219 C 7.511719 5.449219 7.023438 5.46875 6.554688 5.507812 C 6.273438 5.902344 6.003906 6.316406 5.757812 6.738281 C 5.515625 7.144531 5.292969 7.570312 5.085938 8 C 5.292969 8.429688 5.515625 8.855469 5.757812 9.261719 C 6.003906 9.683594 6.269531 10.09375 6.554688 10.492188 Z M 11.304688 8.902344 C 11.171875 9.15625 11.035156 9.40625 10.894531 9.648438 C 10.75 9.890625 10.597656 10.132812 10.441406 10.371094 C 10.890625 10.300781 11.320312 10.214844 11.722656 10.105469 C 11.609375 9.71875 11.46875 9.316406 11.304688 8.902344 Z M 4.277344 10.105469 C 4.679688 10.214844 5.109375 10.300781 5.554688 10.371094 C 5.398438 10.128906 5.246094 9.886719 5.105469 9.648438 C 4.964844 9.40625 4.828125 9.15625 4.691406 8.902344 C 4.527344 9.316406 4.390625 9.71875 4.277344 10.105469 Z M 11.746094 8 C 12.035156 8.640625 12.269531 9.273438 12.445312 9.886719 C 13.84375 9.394531 14.710938 8.675781 14.710938 8 C 14.710938 7.324219 13.84375 6.605469 12.445312 6.113281 C 12.269531 6.726562 12.035156 7.359375 11.746094 8 Z M 3.554688 6.113281 C 2.15625 6.605469 1.289062 7.324219 1.289062 8 C 1.289062 8.675781 2.15625 9.394531 3.554688 9.886719 C 3.730469 9.273438 3.964844 8.640625 4.253906 8 C 3.964844 7.359375 3.730469 6.726562 3.554688 6.113281 Z M 4.277344 5.894531 C 4.390625 6.28125 4.527344 6.683594 4.691406 7.097656 C 4.824219 6.84375 4.964844 6.59375 5.105469 6.351562 C 5.246094 6.113281 5.398438 5.867188 5.558594 5.628906 C 5.109375 5.699219 4.679688 5.785156 4.277344 5.894531 Z M 10.441406 5.628906 C 10.601562 5.871094 10.75 6.113281 10.894531 6.351562 C 11.035156 6.59375 11.171875 6.84375 11.304688 7.097656 C 11.46875 6.683594 11.609375 6.28125 11.722656 5.894531 C 11.320312 5.785156 10.890625 5.695312 10.441406 5.628906 Z M 5.066406 2.046875 C 4.875 2.046875 4.703125 2.085938 4.5625 2.167969 C 4.316406 2.308594 4.136719 2.574219 4.035156 2.957031 C 3.886719 3.511719 3.90625 4.273438 4.09375 5.164062 C 4.730469 4.996094 5.417969 4.871094 6.140625 4.792969 C 6.5625 4.230469 7 3.714844 7.453125 3.261719 C 6.550781 2.476562 5.707031 2.046875 5.066406 2.046875 Z M 9.859375 4.792969 C 10.582031 4.871094 11.269531 4.996094 11.90625 5.164062 C 12.09375 4.273438 12.113281 3.511719 11.964844 2.957031 C 11.863281 2.574219 11.683594 2.308594 11.4375 2.167969 C 11.292969 2.089844 11.125 2.046875 10.933594 2.046875 C 10.292969 2.046875 9.449219 2.476562 8.550781 3.261719 C 9 3.714844 9.4375 4.230469 9.859375 4.792969 Z M 8 4.691406 C 8.273438 4.691406 8.554688 4.699219 8.835938 4.710938 C 8.5625 4.378906 8.28125 4.0625 8 3.78125 C 7.71875 4.066406 7.4375 4.378906 7.164062 4.710938 C 7.445312 4.699219 7.726562 4.691406 8 4.691406 Z M 8 4.691406 "/>
<path style=" stroke:none;fill-rule:nonzero;fill:rgb(30.588235%,47.843137%,70.980392%);fill-opacity:1;" d="M 5.066406 1.382812 C 5.914062 1.382812 6.953125 1.933594 8 2.871094 C 9.046875 1.933594 10.085938 1.386719 10.933594 1.386719 C 11.242188 1.386719 11.519531 1.457031 11.761719 1.59375 C 12.171875 1.824219 12.453125 2.226562 12.605469 2.785156 C 12.808594 3.527344 12.765625 4.4375 12.523438 5.445312 C 14.265625 6.027344 15.371094 6.949219 15.371094 8 C 15.371094 9.050781 14.265625 9.972656 12.523438 10.554688 C 12.773438 11.644531 12.816406 12.582031 12.605469 13.214844 C 12.453125 13.773438 12.171875 14.175781 11.765625 14.40625 C 11.519531 14.542969 11.300781 14.613281 10.992188 14.613281 C 10.992188 14.613281 10.914062 14.613281 10.914062 14.613281 C 10.066406 14.613281 9.046875 14.066406 8 13.128906 C 6.953125 14.066406 5.914062 14.617188 5.066406 14.617188 C 4.757812 14.617188 4.480469 14.546875 4.238281 14.40625 C 3.828125 14.175781 3.546875 13.773438 3.394531 13.214844 C 3.171875 12.511719 3.214844 11.589844 3.476562 10.554688 C 1.734375 9.972656 0.628906 9.050781 0.628906 8 C 0.628906 6.949219 1.734375 6.027344 3.476562 5.445312 C 3.347656 4.867188 3.265625 4.332031 3.261719 3.84375 C 3.257812 3.457031 3.3125 3.09375 3.394531 2.785156 C 3.546875 2.226562 3.828125 1.824219 4.234375 1.59375 C 4.480469 1.453125 4.757812 1.382812 5.066406 1.382812 M 4.023438 5.28125 C 4.679688 5.101562 5.410156 4.964844 6.191406 4.882812 C 6.644531 4.273438 7.113281 3.730469 7.589844 3.257812 C 6.667969 2.4375 5.773438 1.953125 5.066406 1.953125 C 4.855469 1.953125 4.671875 1.996094 4.515625 2.085938 C 4.246094 2.238281 4.054688 2.523438 3.941406 2.933594 C 3.78125 3.539062 3.816406 4.355469 4.023438 5.28125 M 11.976562 5.28125 C 12.179688 4.355469 12.21875 3.535156 12.054688 2.933594 C 11.945312 2.523438 11.753906 2.238281 11.484375 2.085938 C 11.328125 1.996094 11.140625 1.953125 10.933594 1.953125 C 10.226562 1.953125 9.332031 2.4375 8.410156 3.257812 C 8.886719 3.730469 9.355469 4.273438 9.804688 4.878906 C 10.589844 4.964844 11.320312 5.101562 11.976562 5.28125 M 6.957031 4.820312 C 7.296875 4.796875 7.636719 4.78125 7.992188 4.78125 C 8.347656 4.78125 8.703125 4.796875 9.042969 4.820312 C 8.703125 4.386719 8.351562 3.996094 8 3.644531 C 7.648438 3.996094 7.296875 4.386719 6.957031 4.820312 M 8 10.644531 C 8.523438 10.644531 9.019531 10.625 9.496094 10.582031 C 9.785156 10.179688 10.0625 9.757812 10.324219 9.3125 C 10.578125 8.878906 10.808594 8.4375 11.015625 8 C 10.808594 7.5625 10.578125 7.125 10.324219 6.6875 C 10.0625 6.242188 9.785156 5.820312 9.496094 5.417969 C 9.023438 5.375 8.523438 5.355469 8 5.355469 C 7.476562 5.355469 6.976562 5.375 6.503906 5.417969 C 6.214844 5.820312 5.9375 6.242188 5.675781 6.6875 C 5.421875 7.125 5.1875 7.5625 4.984375 8 C 5.1875 8.4375 5.421875 8.878906 5.675781 9.3125 C 5.9375 9.757812 6.214844 10.179688 6.503906 10.582031 C 6.976562 10.625 7.476562 10.644531 8 10.644531 M 11.316406 7.320312 C 11.527344 6.808594 11.703125 6.308594 11.839844 5.828125 C 11.355469 5.695312 10.824219 5.585938 10.246094 5.503906 C 10.441406 5.792969 10.628906 6.089844 10.8125 6.402344 C 10.992188 6.707031 11.160156 7.015625 11.316406 7.320312 M 4.683594 7.320312 C 4.839844 7.015625 5.007812 6.707031 5.1875 6.402344 C 5.371094 6.089844 5.558594 5.792969 5.753906 5.503906 C 5.175781 5.585938 4.644531 5.695312 4.160156 5.828125 C 4.292969 6.308594 4.46875 6.808594 4.683594 7.320312 M 12.382812 10.007812 C 13.910156 9.492188 14.804688 8.730469 14.804688 8 C 14.804688 7.269531 13.910156 6.507812 12.382812 5.992188 C 12.203125 6.636719 11.953125 7.3125 11.640625 8 C 11.953125 8.6875 12.203125 9.363281 12.382812 10.007812 M 3.617188 10.007812 C 3.796875 9.363281 4.046875 8.6875 4.359375 8 C 4.046875 7.3125 3.796875 6.636719 3.617188 5.992188 C 2.089844 6.511719 1.195312 7.269531 1.195312 8 C 1.195312 8.730469 2.089844 9.492188 3.617188 10.007812 M 10.246094 10.496094 C 10.824219 10.414062 11.355469 10.304688 11.839844 10.171875 C 11.703125 9.691406 11.527344 9.191406 11.316406 8.679688 C 11.160156 8.984375 10.992188 9.292969 10.8125 9.597656 C 10.628906 9.910156 10.441406 10.207031 10.246094 10.496094 M 5.753906 10.496094 C 5.558594 10.207031 5.367188 9.910156 5.1875 9.597656 C 5.007812 9.292969 4.839844 8.984375 4.683594 8.679688 C 4.46875 9.191406 4.292969 9.691406 4.160156 10.171875 C 4.644531 10.304688 5.175781 10.414062 5.753906 10.496094 M 5.066406 14.046875 C 5.773438 14.046875 6.667969 13.5625 7.589844 12.742188 C 7.113281 12.269531 6.644531 11.726562 6.191406 11.117188 C 5.410156 11.035156 4.679688 10.898438 4.023438 10.71875 C 3.820312 11.644531 3.78125 12.460938 3.945312 13.066406 C 4.054688 13.476562 4.246094 13.761719 4.515625 13.914062 C 4.671875 14.003906 4.859375 14.046875 5.066406 14.046875 M 10.933594 14.046875 C 11.140625 14.046875 11.328125 14.003906 11.484375 13.914062 C 11.753906 13.761719 11.945312 13.476562 12.054688 13.066406 C 12.21875 12.460938 12.179688 11.644531 11.976562 10.71875 C 11.320312 10.898438 10.589844 11.035156 9.804688 11.117188 C 9.355469 11.726562 8.886719 12.269531 8.410156 12.742188 C 9.332031 13.5625 10.226562 14.046875 10.933594 14.046875 M 8 12.355469 C 8.351562 12.007812 8.703125 11.613281 9.042969 11.179688 C 8.703125 11.203125 8.371094 11.246094 8.015625 11.246094 C 7.660156 11.246094 7.296875 11.203125 6.957031 11.179688 C 7.296875 11.613281 7.648438 12.007812 8 12.355469 M 4.996094 1.210938 C 4.65625 1.210938 4.414062 1.273438 4.144531 1.425781 C 3.691406 1.683594 3.375 2.125 3.214844 2.738281 C 3.03125 3.414062 3.046875 4.304688 3.257812 5.320312 C 1.464844 5.957031 0.441406 6.925781 0.441406 8 C 0.441406 9.074219 1.464844 10.042969 3.257812 10.679688 C 3.046875 11.695312 3.03125 12.585938 3.214844 13.261719 C 3.375 13.875 3.691406 14.316406 4.144531 14.574219 C 4.414062 14.726562 4.742188 14.792969 5.082031 14.792969 C 5.929688 14.792969 6.925781 14.3125 8 13.382812 C 9.074219 14.3125 10.085938 14.804688 10.933594 14.804688 C 11.273438 14.804688 11.585938 14.726562 11.855469 14.570312 C 12.308594 14.3125 12.621094 13.875 12.785156 13.265625 C 12.96875 12.585938 12.953125 11.695312 12.742188 10.679688 C 14.535156 10.042969 15.558594 9.074219 15.558594 8 C 15.558594 6.925781 14.535156 5.957031 12.742188 5.320312 C 12.953125 4.304688 12.96875 3.414062 12.785156 2.734375 C 12.621094 2.125 12.308594 1.6875 11.855469 1.429688 C 11.585938 1.273438 11.273438 1.195312 10.933594 1.195312 C 10.085938 1.195312 9.074219 1.6875 8 2.621094 C 6.925781 1.6875 5.910156 1.210938 5.0625 1.210938 Z M 4.167969 5.046875 C 4.078125 4.609375 4.019531 4.195312 4.019531 3.835938 C 4.015625 3.511719 4.058594 3.226562 4.125 2.980469 C 4.222656 2.625 4.382812 2.378906 4.609375 2.25 C 4.738281 2.175781 4.894531 2.128906 5.066406 2.128906 C 5.667969 2.128906 6.460938 2.539062 7.3125 3.269531 C 6.894531 3.699219 6.484375 4.179688 6.089844 4.703125 C 5.414062 4.777344 4.765625 4.894531 4.167969 5.046875 Z M 8.6875 3.269531 C 9.539062 2.539062 10.332031 2.140625 10.933594 2.140625 C 11.109375 2.140625 11.261719 2.179688 11.390625 2.25 C 11.617188 2.378906 11.777344 2.625 11.875 2.980469 C 12.039062 3.511719 12.015625 4.222656 11.832031 5.046875 C 11.230469 4.894531 10.585938 4.777344 9.910156 4.703125 C 9.515625 4.179688 9.105469 3.699219 8.6875 3.269531 Z M 7.371094 4.609375 C 7.578125 4.363281 7.789062 4.132812 8 3.914062 C 8.210938 4.132812 8.421875 4.363281 8.628906 4.609375 C 8.417969 4.601562 8.207031 4.597656 8 4.597656 C 7.792969 4.597656 7.582031 4.601562 7.371094 4.609375 Z M 6.605469 5.601562 C 7.0625 5.5625 7.527344 5.535156 8 5.535156 C 8.472656 5.535156 8.9375 5.5625 9.394531 5.601562 C 9.664062 5.980469 9.921875 6.378906 10.160156 6.785156 C 10.390625 7.175781 10.609375 7.585938 10.808594 8 C 10.609375 8.414062 10.390625 8.824219 10.160156 9.214844 C 9.921875 9.621094 9.664062 10.019531 9.394531 10.398438 C 8.9375 10.4375 8.472656 10.488281 8 10.488281 C 7.527344 10.488281 7.058594 10.4375 6.605469 10.398438 C 6.335938 10.019531 6.078125 9.621094 5.839844 9.214844 C 5.609375 8.824219 5.390625 8.414062 5.191406 8 C 5.390625 7.585938 5.609375 7.175781 5.839844 6.785156 C 6.078125 6.378906 6.335938 5.980469 6.605469 5.601562 Z M 11.292969 6.871094 C 11.1875 6.679688 11.082031 6.488281 10.976562 6.304688 C 10.867188 6.121094 10.753906 5.9375 10.636719 5.753906 C 10.972656 5.8125 11.296875 5.882812 11.605469 5.960938 C 11.515625 6.253906 11.410156 6.558594 11.292969 6.871094 Z M 4.394531 5.960938 C 4.703125 5.882812 5.027344 5.8125 5.363281 5.753906 C 5.246094 5.9375 5.132812 6.121094 5.023438 6.304688 C 4.917969 6.488281 4.808594 6.679688 4.707031 6.871094 C 4.585938 6.5625 4.484375 6.257812 4.394531 5.960938 Z M 11.847656 8 C 12.117188 7.402344 12.339844 6.8125 12.507812 6.238281 C 13.8125 6.714844 14.613281 7.378906 14.613281 8 C 14.613281 8.621094 13.8125 9.285156 12.507812 9.761719 C 12.335938 9.1875 12.117188 8.597656 11.847656 8 Z M 3.492188 9.761719 C 2.1875 9.285156 1.386719 8.621094 1.386719 8 C 1.386719 7.378906 2.1875 6.714844 3.492188 6.238281 C 3.660156 6.8125 3.882812 7.402344 4.148438 8 C 3.882812 8.597656 3.660156 9.1875 3.492188 9.761719 Z M 10.636719 10.246094 C 10.753906 10.0625 10.867188 9.878906 10.972656 9.695312 C 11.082031 9.511719 11.1875 9.320312 11.292969 9.128906 C 11.410156 9.441406 11.515625 9.746094 11.605469 10.039062 C 11.296875 10.117188 10.972656 10.1875 10.636719 10.246094 Z M 4.394531 10.039062 C 4.484375 9.746094 4.585938 9.441406 4.707031 9.128906 C 4.808594 9.320312 4.917969 9.511719 5.023438 9.695312 C 5.132812 9.878906 5.246094 10.0625 5.363281 10.246094 C 5.027344 10.1875 4.703125 10.117188 4.394531 10.039062 Z M 5.066406 13.859375 C 4.890625 13.859375 4.738281 13.824219 4.609375 13.75 C 4.382812 13.621094 4.222656 13.375 4.125 13.019531 C 3.96875 12.480469 3.988281 11.773438 4.167969 10.953125 C 4.769531 11.105469 5.414062 11.222656 6.089844 11.296875 C 6.484375 11.820312 6.894531 12.300781 7.3125 12.730469 C 6.460938 13.460938 5.667969 13.859375 5.066406 13.859375 Z M 9.910156 11.296875 C 10.585938 11.222656 11.230469 11.105469 11.832031 10.953125 C 12.039062 11.847656 12.058594 12.5625 11.875 13.019531 C 11.777344 13.375 11.617188 13.621094 11.390625 13.75 C 11.261719 13.820312 11.109375 13.859375 10.933594 13.859375 L 10.933594 14.046875 L 10.933594 13.859375 C 10.332031 13.859375 9.539062 13.460938 8.6875 12.730469 C 9.105469 12.300781 9.515625 11.820312 9.910156 11.296875 Z M 8 12.085938 C 7.789062 11.871094 7.578125 11.636719 7.371094 11.390625 C 7.582031 11.398438 7.792969 11.402344 8 11.402344 C 8.207031 11.402344 8.417969 11.398438 8.628906 11.390625 C 8.421875 11.636719 8.210938 11.871094 8 12.085938 Z M 8 12.085938 "/>
</g>
</svg>
